<svg width="24" height="24" viewBox="0 0 24 24" fill="none" xmlns="http://www.w3.org/2000/svg">
<g clip-path="url(#clip0_1314_39)">
<path fill-rule="evenodd" clip-rule="evenodd" d="M12.705 1.97704C12.488 1.86148 12.2459 1.80104 12 1.80104C11.7541 1.80104 11.512 1.86148 11.295 1.97704L2.295 6.77704C2.05503 6.90482 1.8543 7.09541 1.71428 7.32844C1.57425 7.56147 1.50018 7.82818 1.5 8.10004V9.32554L10.125 14.5005L12 13.3755L13.875 14.5005L22.5 9.32554V8.10004C22.4998 7.82818 22.4258 7.56147 22.2857 7.32844C22.1457 7.09541 21.945 6.90482 21.705 6.77704L12.705 1.97704V1.97704ZM22.5 11.0745L15.333 15.375L22.5 19.6755V11.0745ZM22.4475 21.3945L12 15.123L1.5525 21.393C1.63879 21.7109 1.82728 21.9915 2.08888 22.1915C2.35049 22.3916 2.67066 22.5 3 22.5H21C21.3293 22.5 21.6495 22.3916 21.9111 22.1915C22.1727 21.9915 22.3612 21.7109 22.4475 21.393V21.3945ZM1.5 19.674L8.667 15.3735L1.5 11.0745V19.6755V19.674ZM10.5885 0.652544C11.0229 0.420907 11.5077 0.299744 12 0.299744C12.4923 0.299744 12.9771 0.420907 13.4115 0.652544L22.4115 5.45254C22.8914 5.70842 23.2927 6.08992 23.5725 6.55626C23.8523 7.02259 24.0001 7.55621 24 8.10004V21C24 21.7957 23.6839 22.5588 23.1213 23.1214C22.5587 23.684 21.7956 24 21 24H3C2.20435 24 1.44129 23.684 0.87868 23.1214C0.316071 22.5588 1.50058e-08 21.7957 1.50058e-08 21V8.10004C-5.437e-05 7.55621 0.147721 7.02259 0.427521 6.55626C0.707321 6.08992 1.10862 5.70842 1.5885 5.45254L10.5885 0.652544V0.652544Z" fill="black"/>
</g>
<defs>
<clipPath id="clip0_1314_39">
<rect width="24" height="24" fill="white"/>
</clipPath>
</defs>
</svg>
