<svg width="150" height="150" viewBox="0 0 150 150" fill="none" xmlns="http://www.w3.org/2000/svg">
<rect width="150" height="150" fill="white"/>
<path d="M75 8.2251C38.1187 8.2251 8.22495 38.1189 8.22495 75.0001C8.22495 111.881 38.1187 141.775 75 141.775C111.881 141.775 141.775 111.881 141.775 75.0001C141.7 38.1501 111.85 8.3001 75.0062 8.2251H75ZM75 147.581C34.9125 147.581 2.4187 115.088 2.4187 75.0001C2.4187 34.9126 34.9125 2.41885 75 2.41885C115.087 2.41885 147.581 34.9126 147.581 75.0001V75.0939C147.581 115.125 115.131 147.575 75.1 147.575H75H75.0062L75 147.581Z" fill="#333333"/>
<path d="M75 150C33.6625 149.788 0.2125 116.338 0 75.0188V75C0 33.5812 33.5812 0 75 0C116.419 0 150 33.5812 150 75C149.788 116.338 116.338 149.788 75.0188 150H75ZM75 4.8375C36.25 4.8375 4.8375 36.25 4.8375 75C4.8375 113.75 36.25 145.163 75 145.163C113.75 145.163 145.163 113.75 145.163 75C145.137 36.2625 113.738 4.86875 75.0063 4.8375H75ZM75 144.194C36.7875 144.194 5.80625 113.213 5.80625 75C5.80625 36.7875 36.7875 5.80625 75 5.80625C113.213 5.80625 144.194 36.7875 144.194 75C144.194 113.213 113.213 144.194 75 144.194ZM75 10.6437C39.4563 10.6437 10.6437 39.4563 10.6437 75C10.6437 110.544 39.4563 139.356 75 139.356C110.544 139.356 139.356 110.544 139.356 75V74.9688C139.356 39.4437 110.556 10.6437 75.0312 10.6437H75Z" fill="#333333"/>
<path d="M60.4813 61.9375V61.9938C60.4813 69.1813 54.6562 75.0063 47.4687 75.0063H47.3563C43.9051 75.0063 40.5953 73.6353 38.155 71.195C35.7147 68.7547 34.3438 65.4449 34.3438 61.9938V61.9375C34.3438 58.4731 35.72 55.1507 38.1697 52.701C40.6194 50.2513 43.9419 48.875 47.4063 48.875C50.8706 48.875 54.1931 50.2513 56.6428 52.701C59.0925 55.1507 60.4688 58.4731 60.4688 61.9375H60.4813Z" fill="#333333"/>
<path d="M116.131 61.9374V61.9936C116.131 69.1811 110.306 75.0061 103.119 75.0061H103.006C101.297 75.0061 99.6052 74.6695 98.0265 74.0156C96.4477 73.3617 95.0132 72.4032 93.8049 71.1948C92.5966 69.9865 91.6381 68.552 90.9842 66.9733C90.3302 65.3945 89.9937 63.7024 89.9937 61.9936V61.9374V61.8811C89.9937 54.6936 95.8187 48.8686 103.006 48.8686H103.062C106.504 48.9357 109.785 50.3318 112.22 52.7644C114.655 55.197 116.055 58.4775 116.125 61.9186V61.9311L116.131 61.9374Z" fill="#333333"/>
<path d="M74.9999 113.713H74.9187C70.477 113.713 66.1457 112.329 62.5267 109.754C58.9077 107.179 56.1808 103.54 54.7249 99.3439L54.6812 99.1939C54.4996 98.4937 54.6005 97.7501 54.9623 97.1237C55.324 96.4973 55.9175 96.0381 56.6147 95.8454C57.3119 95.6526 58.0569 95.7417 58.6891 96.0933C59.3212 96.445 59.7898 97.0311 59.9937 97.7251L59.9999 97.7439C61.083 100.847 63.1019 103.538 65.7783 105.446C68.4547 107.353 71.6569 108.384 74.9436 108.396C78.2303 108.407 81.4397 107.399 84.1295 105.511C86.8194 103.622 88.8573 100.945 89.9624 97.8501L89.9999 97.7376C90.0945 97.3858 90.2581 97.0563 90.4812 96.7683C90.7042 96.4802 90.9823 96.2394 91.2992 96.0597C91.6161 95.88 91.9655 95.7651 92.3273 95.7216C92.689 95.6781 93.0557 95.7069 93.4062 95.8064L93.3874 95.8001C93.7387 95.8954 94.0675 96.0595 94.3548 96.2828C94.6422 96.5061 94.8824 96.7843 95.0614 97.1011C95.2405 97.418 95.3549 97.7672 95.398 98.1286C95.441 98.49 95.412 98.8563 95.3124 99.2064L95.3187 99.1876C93.88 103.415 91.1558 107.088 87.5272 109.691C83.8986 112.294 79.547 113.698 75.0812 113.706H74.9937H74.9999V113.713Z" fill="#333333"/>
<path d="M74.9999 116.131C70.0088 116.056 65.1602 114.456 61.1047 111.546C57.0493 108.636 53.9812 104.554 52.3124 99.8499L52.2624 99.6811C51.842 98.3439 51.9626 96.8952 52.5983 95.6459C53.2339 94.3966 54.334 93.4462 55.6624 92.9988C56.9908 92.5513 58.4417 92.6425 59.7036 93.2526C60.9656 93.8628 61.9381 94.9433 62.4124 96.2624L62.4249 96.2999C63.325 98.9358 65.0134 101.231 67.2615 102.876C69.5097 104.52 72.2089 105.434 74.9937 105.494H75.0062C77.7772 105.441 80.4656 104.54 82.7094 102.913C84.9532 101.286 86.6447 99.0111 87.5562 96.3936L87.5874 96.2999C87.9775 95.0616 88.8367 94.0252 89.9812 93.4124L90.0062 93.3999C91.2027 92.7507 92.6015 92.5808 93.9187 92.9249L93.8812 92.9186C94.5611 93.128 95.1914 93.4737 95.7335 93.9344C96.2757 94.3952 96.7184 94.9615 97.0347 95.5988C97.351 96.2361 97.5343 96.9311 97.5735 97.6415C97.6126 98.352 97.5068 99.0629 97.2624 99.7311L97.2749 99.6936C95.7924 104.443 92.8364 108.598 88.8349 111.556C84.8335 114.513 79.9944 116.12 75.0187 116.144H75.0124L74.9999 116.131ZM74.9999 111.287H75.0437C78.9979 111.286 82.8505 110.035 86.0508 107.712C89.2511 105.39 91.6353 102.115 92.8624 98.3561L92.8999 98.2249V97.7436H92.4187C91.2065 101.401 88.8744 104.584 85.7526 106.842C82.6309 109.1 78.8777 110.318 75.0249 110.325H74.8499C71.0329 110.324 67.3131 109.121 64.2188 106.886C61.1245 104.651 58.8129 101.498 57.6124 97.8749L57.5749 97.7436C57.5749 97.7436 57.0937 97.2624 57.0937 97.7436C57.0937 97.7436 56.6124 98.2249 57.0937 98.2249C58.3034 102.012 60.6843 105.318 63.8934 107.666C67.1024 110.013 70.9739 111.281 74.9499 111.287H74.9999Z" fill="#333333"/>
</svg>
