<svg width="24" height="24" viewBox="0 0 24 24" fill="none" xmlns="http://www.w3.org/2000/svg">
<path d="M11.9955 2.25C11.7218 2.25 11.448 2.3175 11.2118 2.4525L3.78 6.7425C3.3 7.02 3 7.545 3 8.1V15.885C3 16.4475 3.3 16.965 3.78 17.2425L5.73 18.3675C6.675 18.8325 7.0125 18.8325 7.44 18.8325C8.8425 18.8325 9.645 17.985 9.645 16.515V8.4825C9.645 8.42482 9.62208 8.36949 9.5813 8.3287C9.54051 8.28792 9.48518 8.265 9.4275 8.265H8.49C8.46133 8.2646 8.43286 8.26995 8.40629 8.28073C8.37972 8.29152 8.35558 8.30753 8.3353 8.3278C8.31503 8.34808 8.29902 8.37222 8.28823 8.39879C8.27745 8.42536 8.2721 8.45383 8.2725 8.4825V16.5075C8.2725 17.1675 7.59 17.8125 6.4875 17.265L4.4475 16.0875C4.41092 16.0679 4.38039 16.0387 4.35924 16.003C4.33808 15.9673 4.32711 15.9265 4.3275 15.885V8.1075C4.3275 8.0175 4.3725 7.9425 4.4475 7.8975L11.88 3.6075C11.9148 3.5855 11.9551 3.57383 11.9963 3.57383C12.0374 3.57383 12.0777 3.5855 12.1125 3.6075L19.545 7.8975C19.62 7.9425 19.665 8.0175 19.665 8.1V15.885C19.665 15.9675 19.62 16.05 19.5525 16.0875L12.1125 20.385C12.0765 20.4034 12.0367 20.413 11.9963 20.413C11.9558 20.413 11.916 20.4034 11.88 20.385L9.9675 19.2525C9.94181 19.2336 9.9114 19.2222 9.87962 19.2196C9.84785 19.2169 9.81596 19.2231 9.7875 19.2375C9.255 19.5375 9.1575 19.575 8.6625 19.7475C8.5425 19.785 8.355 19.86 8.73 20.07L11.2125 21.54C11.4525 21.675 11.7225 21.75 11.9925 21.75C12.27 21.75 12.54 21.675 12.78 21.54L20.22 17.2425C20.7 16.965 21 16.4475 21 15.885V8.1075C21 7.545 20.7 7.0275 20.22 6.75L12.78 2.4525C12.543 2.3175 12.27 2.25 11.9955 2.25ZM13.995 8.2545C11.8725 8.2545 10.605 9.1545 10.605 10.6545C10.605 12.282 11.865 12.7305 13.905 12.933C16.3425 13.173 16.53 13.5345 16.53 14.0145C16.53 14.8395 15.8625 15.192 14.295 15.192C12.3225 15.192 11.8875 14.6962 11.745 13.7213C11.7377 13.6709 11.7124 13.6249 11.6738 13.5918C11.6352 13.5587 11.5859 13.5407 11.535 13.5413H10.5675C10.5118 13.5413 10.4584 13.5634 10.419 13.6028C10.3796 13.6421 10.3575 13.6956 10.3575 13.7512C10.3575 15.0037 11.04 16.4963 14.295 16.4963C16.65 16.4963 18 15.5662 18 13.9462C18 12.3412 16.9125 11.9138 14.6325 11.6063C12.315 11.3063 12.0825 11.1488 12.0825 10.6088C12.0825 10.1588 12.285 9.56625 13.995 9.56625C15.5175 9.56625 16.0875 9.89625 16.32 10.9237C16.3425 11.0212 16.425 11.0963 16.53 11.0963H17.4975C17.5575 11.0963 17.61 11.0662 17.655 11.0212C17.6754 10.9993 17.6907 10.9732 17.6998 10.9446C17.7089 10.9161 17.7115 10.8859 17.7075 10.8563C17.5575 9.08625 16.38 8.25375 13.995 8.25375V8.2545Z" fill="#333333"/>
</svg>
