<svg xmlns="http://www.w3.org/2000/svg"><defs><symbol id="icon-facebook" viewBox="0 0 32 32"><path fill="#3b5998" style="fill:var(--color1, #3b5998)" d="M0 16.089C0 24.044 5.777 30.658 13.333 32V20.444h-4V16h4v-3.556c0-4 2.577-6.221 6.223-6.221 1.155 0 2.4.177 3.555.355v4.089h-2.044c-1.956 0-2.4.977-2.4 2.223v3.111h4.267l-.711 4.444h-3.556v11.556C26.223 30.66 32 24.046 32 16.09 32 7.241 24.8.001 16 .001S0 7.241 0 16.09z"/></symbol><symbol id="icon-linkedin" viewBox="0 0 32 32"><path fill="#0e76a8" style="fill:var(--color2, #0e76a8)" d="M1.333 3.784v24.431a2.452 2.452 0 0 0 2.45 2.452h24.431a2.46 2.46 0 0 0 1.735-.718 2.442 2.442 0 0 0 .717-1.735V3.785a2.46 2.46 0 0 0-.718-1.735 2.442 2.442 0 0 0-1.735-.716H3.784a2.45 2.45 0 0 0-2.451 2.451zm11.611 8.733h3.972v1.995c.573-1.147 2.04-2.179 4.244-2.179 4.225 0 5.227 2.284 5.227 6.475v7.763h-4.276v-6.808c0-2.387-.573-3.733-2.029-3.733-2.02 0-2.86 1.452-2.86 3.733v6.808h-4.277V12.518zM5.611 26.388V12.333h4.277v14.055H5.611zM10.5 7.749a2.746 2.746 0 0 1-.784 1.984 2.744 2.744 0 0 1-1.967.827A2.756 2.756 0 0 1 5.19 8.82a2.746 2.746 0 0 1 .635-2.977 2.748 2.748 0 0 1 3.847 0c.515.502.811 1.187.826 1.906z"/></symbol><symbol id="icon-phone" viewBox="0 0 32 32"><path fill="none" stroke="#fff" style="stroke:var(--color3, #fff)" stroke-linejoin="round" stroke-linecap="round" stroke-width="2.667" d="M14.072 8.32 9.561 3.113c-.52-.6-1.473-.597-2.077.008L3.775 6.837c-1.104 1.105-1.42 2.747-.781 4.063a38.95 38.95 0 0 0 18.081 18.107c1.315.639 2.955.323 4.059-.783l3.744-3.751c.607-.607.608-1.565.003-2.085l-5.227-4.487c-.547-.469-1.396-.408-1.944.141l-1.819 1.821a.613.613 0 0 1-.738.117 19.41 19.41 0 0 1-7.147-7.156.619.619 0 0 1 .117-.739l1.813-1.815c.549-.552.609-1.405.135-1.953v.001z"/></symbol><symbol id="icon-whatsapp" viewBox="0 0 32 32"><path fill="#43d854" style="fill:var(--color4, #43d854)" d="M23.22 19.176c-.397-.199-2.345-1.156-2.708-1.289-.363-.132-.627-.197-.892.2-.264.395-1.023 1.288-1.253 1.552-.232.265-.463.297-.859.1-.396-.2-1.673-.617-3.187-1.967-1.177-1.051-1.973-2.348-2.204-2.745-.231-.396-.025-.611.173-.808.179-.177.396-.463.595-.693.199-.232.264-.397.396-.663.133-.264.067-.495-.033-.693-.099-.199-.891-2.149-1.221-2.943-.321-.772-.648-.667-.891-.68-.232-.011-.496-.013-.76-.013s-.693.099-1.056.496c-.364.396-1.387 1.355-1.387 3.305 0 1.949 1.419 3.833 1.617 4.099.199.264 2.793 4.267 6.768 5.983.947.408 1.684.652 2.259.833.949.303 1.813.26 2.496.157.76-.113 2.344-.959 2.675-1.884.329-.925.329-1.719.231-1.884s-.363-.264-.76-.463h.001zm-7.229 9.871h-.005a13.153 13.153 0 0 1-6.709-1.837l-.48-.285-4.989 1.309L5.14 23.37l-.313-.499a13.151 13.151 0 0 1-2.015-7.013C2.815 8.591 8.727 2.679 15.997 2.679c3.52 0 6.829 1.373 9.317 3.864a13.1 13.1 0 0 1 3.856 9.324c-.003 7.267-5.915 13.18-13.179 13.18zM27.207 4.651A15.758 15.758 0 0 0 15.989 0C7.25 0 .136 7.113.133 15.856a15.822 15.822 0 0 0 2.116 7.927L0 32l8.405-2.205a15.84 15.84 0 0 0 7.579 1.931h.007c8.739 0 15.853-7.113 15.856-15.857a15.755 15.755 0 0 0-4.64-11.217z"/></symbol><symbol id="icon-javascript" viewBox="0 0 32 32"><path fill="#f0db4f" style="fill:var(--color5, #f0db4f)" d="M4 4h24v24H4V4zm22.033 18.276c-.175-1.095-.888-2.015-3.003-2.873-.736-.345-1.553-.584-1.799-1.139-.091-.331-.104-.509-.045-.705.151-.645.916-.839 1.516-.66.391.12.751.42.976.901 1.033-.676 1.033-.676 1.755-1.125-.271-.419-.405-.601-.585-.781-.631-.704-1.471-1.064-2.835-1.033l-.704.089c-.676.165-1.321.527-1.711 1.005-1.14 1.291-.811 3.54.569 4.472 1.364 1.02 3.361 1.244 3.616 2.204.24 1.171-.869 1.545-1.967 1.411-.809-.181-1.26-.585-1.755-1.336l-1.829 1.051c.209.479.449.689.809 1.109 1.74 1.755 6.091 1.665 6.871-1.005.028-.089.24-.704.075-1.649l.045.065zm-8.982-7.245h-2.248c0 1.937-.009 3.864-.009 5.805 0 1.232.063 2.363-.139 2.711-.329.689-1.181.601-1.567.479-.396-.195-.597-.465-.831-.855-.063-.104-.109-.195-.127-.195l-1.824 1.125c.305.631.751 1.172 1.325 1.516.855.511 2.003.676 3.205.407.784-.227 1.46-.692 1.811-1.412.512-.929.403-2.071.399-3.345.011-2.055 0-4.111 0-6.18l.004-.056z"/></symbol><symbol id="icon-react" viewBox="0 0 32 32"><path fill="#61dbfb" style="fill:var(--color6, #61dbfb)" d="M16 17.373a2.38 2.38 0 1 0 0-4.76 2.38 2.38 0 0 0 0 4.76zM9.336 19.725l-.527-.135c-3.912-.988-6.156-2.668-6.156-4.603 0-1.936 2.245-3.615 6.156-4.603l.527-.133.148.521a25.925 25.925 0 0 0 1.515 3.977l.113.237-.113.237a25.935 25.935 0 0 0-1.515 3.98l-.148.52zm-.769-8.126c-2.972.837-4.797 2.115-4.797 3.389 0 1.272 1.824 2.551 4.797 3.387a28.131 28.131 0 0 1 1.313-3.387 27.095 27.095 0 0 1-1.313-3.389zm14.096 8.126-.147-.523A26.096 26.096 0 0 0 21 15.223l-.113-.236.113-.239a26.081 26.081 0 0 0 1.516-3.979l.147-.52.527.133c3.913.988 6.156 2.667 6.156 4.604 0 1.936-2.244 3.615-6.156 4.603l-.527.135zm-.547-4.737a27.612 27.612 0 0 1 1.316 3.387c2.973-.836 4.799-2.115 4.799-3.387 0-1.275-1.824-2.551-4.799-3.389a27.522 27.522 0 0 1-1.316 3.389z"/><path fill="#61dbfb" style="fill:var(--color6, #61dbfb)" d="m8.558 11.593-.147-.52c-1.101-3.877-.768-6.655.916-7.623 1.647-.953 4.296.173 7.071 3.02l.379.389-.379.388a26.302 26.302 0 0 0-2.693 3.299l-.151.216-.261.021a26.052 26.052 0 0 0-4.209.679l-.525.131zm2.11-7.372a1.55 1.55 0 0 0-.785.193c-1.104.636-1.299 2.851-.539 5.84a27.737 27.737 0 0 1 3.595-.556 28.074 28.074 0 0 1 2.284-2.831c-1.737-1.689-3.377-2.647-4.555-2.647zM21.33 26.867c-1.584 0-3.619-1.195-5.731-3.363l-.377-.388.377-.387a26.428 26.428 0 0 0 2.695-3.303l.149-.213.259-.025a25.961 25.961 0 0 0 4.211-.676l.527-.133.148.521c1.096 3.875.764 6.656-.917 7.624-.408.231-.871.35-1.34.343zm-4.553-3.76c1.736 1.689 3.377 2.648 4.553 2.648.3 0 .564-.067.785-.193 1.105-.637 1.301-2.856.539-5.845a27.695 27.695 0 0 1-3.597.559 27.316 27.316 0 0 1-2.28 2.832z"/><path fill="#61dbfb" style="fill:var(--color6, #61dbfb)" d="m23.44 11.593-.527-.132a26.076 26.076 0 0 0-4.211-.679l-.259-.023-.149-.216a26.142 26.142 0 0 0-2.695-3.299l-.377-.388.377-.387c2.773-2.845 5.421-3.972 7.071-3.02 1.683.969 2.017 3.747.917 7.623l-.148.52zm-4.383-1.894c1.272.113 2.477.304 3.597.556.761-2.989.567-5.204-.539-5.841-1.099-.636-3.167.337-5.339 2.455a27.436 27.436 0 0 1 2.28 2.831zm-8.389 17.168a2.632 2.632 0 0 1-1.34-.343c-1.684-.968-2.017-3.748-.917-7.624l.144-.521.527.133c1.285.324 2.701.552 4.211.676l.259.025.151.213a26.22 26.22 0 0 0 2.693 3.303l.379.387-.379.388c-2.111 2.169-4.145 3.363-5.727 3.363zm-1.324-7.15c-.76 2.989-.565 5.208.539 5.845 1.1.627 3.161-.34 5.34-2.456a28.24 28.24 0 0 1-2.284-2.831 27.47 27.47 0 0 1-3.595-.559z"/><path fill="#61dbfb" style="fill:var(--color6, #61dbfb)" d="M16 20.417c-.916 0-1.856-.039-2.8-.117l-.261-.023-.151-.216a34.06 34.06 0 0 1-1.501-2.359 34.509 34.509 0 0 1-1.295-2.479l-.112-.236.112-.239c.399-.843.829-1.669 1.295-2.477.463-.795.968-1.589 1.501-2.36l.151-.213.261-.024a33.527 33.527 0 0 1 5.597 0l.259.025.151.213a33.596 33.596 0 0 1 2.8 4.837l.111.239-.111.236a33.017 33.017 0 0 1-2.8 4.837l-.151.216-.259.023c-.941.076-1.883.116-2.797.116zm-2.445-1.205c1.647.124 3.244.124 4.889 0a32.725 32.725 0 0 0 2.443-4.224 31.914 31.914 0 0 0-2.443-4.224 31.917 31.917 0 0 0-4.889 0 31.677 31.677 0 0 0-2.443 4.224 33.097 33.097 0 0 0 2.443 4.224z"/></symbol><symbol id="icon-viber" viewBox="0 0 32 32"><path fill="#7360f2" style="fill:var(--color7, #7360f2)" d="M28.091 3.116C27.263 2.389 23.91.053 16.443.023c0 0-8.811-.505-13.103 3.269C.953 5.58.116 8.931.02 13.087S-.183 25.032 7.651 27.15h.007l-.007 3.225s-.051 1.307.845 1.569c1.082.325 1.722-.669 2.759-1.739a96.578 96.578 0 0 0 1.944-2.107c3.405.302 6.838.051 10.155-.743l-.209.043c1.082-.337 7.207-1.088 8.198-8.876 1.035-8.04-.493-13.112-3.251-15.407zm.907 14.82c-.845 6.5-5.806 6.913-6.719 7.193-1.992.485-4.28.763-6.635.763-.676 0-1.347-.023-2.01-.068l.089.005s-3.392 3.919-4.448 4.937c-.345.331-.725.304-.718-.356 0-.431.026-5.357.026-5.357-6.632-1.763-6.248-8.397-6.17-11.863s.757-6.313 2.778-8.225c3.634-3.156 11.115-2.688 11.115-2.688 6.321.025 9.347 1.851 10.051 2.463 2.329 1.913 3.516 6.489 2.641 13.195v.001zm-9.059-5.051v.019c-.003.104-.047.203-.124.276s-.18.116-.288.118c-.108.003-.214-.035-.294-.104s-.13-.166-.138-.27v-.001c.028-.278-.007-.559-.103-.823s-.251-.505-.453-.706c-.203-.201-.449-.358-.721-.459s-.564-.145-.855-.128h.006c-.108-.008-.209-.056-.281-.133s-.111-.178-.109-.282.047-.203.124-.276a.431.431 0 0 1 .288-.118h.022l.096-.001c.388 0 .773.076 1.129.224s.677.365.942.637c.265.272.469.593.599.944s.184.723.158 1.095v-.008l.001-.001zm1.323.708c.065-2.651-1.663-4.725-4.943-4.957a.425.425 0 0 1-.301-.133c-.038-.041-.067-.088-.086-.14a.384.384 0 0 1 .023-.317.416.416 0 0 1 .255-.204.435.435 0 0 1 .168-.015h.022c.779 0 1.549.152 2.264.448s1.359.728 1.893 1.271c.534.543.947 1.185 1.213 1.886s.379 1.447.333 2.192l.001-.015c-.007.103-.056.2-.135.27a.435.435 0 0 1-.581-.008.397.397 0 0 1-.128-.273v-.011l.001.004zm3.061.839v.003c-.006.103-.052.201-.13.272s-.182.112-.29.112c-.108.001-.212-.039-.291-.109s-.127-.168-.133-.271c-.033-5.096-3.58-7.871-7.877-7.9a.423.423 0 0 1-.389-.25.395.395 0 0 1 .091-.441.447.447 0 0 1 .298-.119c4.813.032 8.68 3.215 8.719 8.7l.003.001zm-.731 6.131v.012c-.704 1.188-2.022 2.5-3.378 2.081l-.012-.019a25.422 25.422 0 0 1-6.721-3.572l.057.04a16.853 16.853 0 0 1-2.739-2.617l-.026-.033a20.063 20.063 0 0 1-1.951-2.808l-.056-.105a17.895 17.895 0 0 1-1.66-3.351l-.042-.131c-.437-1.3.925-2.563 2.172-3.237h.013c.245-.15.54-.209.827-.165s.548.189.731.406l.001.003s.808.924 1.155 1.381c.326.425.764 1.107.991 1.487.171.26.24.569.196.873s-.199.583-.437.789l-.001.001-.782.6c-.122.113-.216.25-.276.402s-.083.315-.069.477v-.004c.387 1.236 1.086 2.363 2.035 3.279s2.118 1.595 3.405 1.976l.058.015a1.19 1.19 0 0 0 .913-.329l.626-.749a1.404 1.404 0 0 1 1.741-.228l-.006-.003a17.008 17.008 0 0 1 3.001 2.065l-.015-.013c.226.173.377.421.422.695s-.018.554-.177.785l.003-.004.003.003z"/></symbol><symbol id="icon-telegram" viewBox="0 0 32 32"><path fill="#08c" style="fill:var(--color8, #08c)" d="M32 16c0 8.836-7.164 16-16 16S0 24.836 0 16 7.164 0 16 0s16 7.164 16 16zm-15.427-4.188c-1.556.647-4.667 1.987-9.331 4.019-.757.301-1.155.596-1.191.884-.061.488.549.68 1.379.94.113.036.231.072.351.112.817.265 1.916.576 2.487.588.519.011 1.097-.203 1.736-.64 4.357-2.943 6.607-4.429 6.748-4.461.1-.023.239-.052.332.032.093.083.084.24.075.283-.061.257-2.453 2.483-3.693 3.635-.387.359-.66.613-.716.672-.125.129-.253.253-.376.372-.76.731-1.328 1.28.032 2.176.653.431 1.176.787 1.697 1.141.569.388 1.137.775 1.873 1.257.187.123.365.249.54.373.663.473 1.259.897 1.995.831.427-.04.869-.441 1.093-1.64.529-2.835 1.572-8.973 1.813-11.504a2.76 2.76 0 0 0-.027-.629.67.67 0 0 0-.229-.433c-.191-.156-.487-.189-.62-.187-.601.011-1.524.332-5.968 2.18z"/></symbol><symbol id="icon-nodejs" viewBox="0 0 32 32"><path fill="#68a063" style="fill:var(--color9, #68a063)" d="M15.994 3c-.365 0-.73.09-1.045.27L5.04 8.99C4.4 9.36 4 10.06 4 10.8v10.38c0 .75.4 1.44 1.04 1.81l2.6 1.5c1.26.62 1.71.62 2.28.62 1.87 0 2.94-1.13 2.94-3.09V11.31a.29.29 0 0 0-.29-.29h-1.25a.29.29 0 0 0-.27.179.286.286 0 0 0-.021.112v10.7c0 .88-.91 1.74-2.38 1.01l-2.72-1.57a.305.305 0 0 1-.16-.27v-10.37c0-.12.06-.22.16-.28l9.91-5.72a.292.292 0 0 1 .31 0l9.91 5.72c.1.06.16.16.16.27v10.38c0 .11-.06.22-.15.27l-9.92 5.73a.347.347 0 0 1-.31 0l-2.55-1.51a.229.229 0 0 0-.24-.02c-.71.4-.84.45-1.5.68-.16.05-.41.15.09.43l3.31 1.96c.32.18.68.28 1.04.28.37 0 .73-.1 1.05-.28l9.92-5.73c.64-.37 1.04-1.06 1.04-1.81v-10.37c0-.75-.4-1.44-1.04-1.81l-9.92-5.73c-.316-.18-.68-.27-1.046-.27zm2.666 8.006c-2.83 0-4.52 1.2-4.52 3.2 0 2.17 1.68 2.768 4.4 3.038 3.25.32 3.5.802 3.5 1.442 0 1.1-.89 1.57-2.98 1.57-2.63 0-3.21-.661-3.4-1.961a.28.28 0 0 0-.28-.24h-1.29a.28.28 0 0 0-.28.28c0 1.67.91 3.66 5.25 3.66 3.14 0 4.94-1.24 4.94-3.4 0-2.14-1.45-2.71-4.49-3.12-3.09-.4-3.4-.61-3.4-1.33 0-.6.27-1.39 2.55-1.39 2.03 0 2.79.44 3.1 1.81.03.13.14.23.28.23h1.29a.299.299 0 0 0 .27-.202.262.262 0 0 0 .01-.118c-.2-2.36-1.77-3.47-4.95-3.47v.001z"/></symbol></defs></svg>